<svg xmlns="http://www.w3.org/2000/svg" width="25" height="25" viewBox="0 0 611.998 611.998" style="enable-background:new 0 0 611.998 611.998" xml:space="preserve" fill="#2e8b57">
  <path d="M601.227 89.127c-6.953-7.082-15.549-10.719-25.418-10.719H95.787c-9.871 0-18.625 3.509-25.726 10.719-6.955 7.146-10.464 15.887-10.464 26.032v137.882h33.198v-87.604l230.889 235.949c3.254 3.318 7.178 4.785 11.664 4.785h1.193c4.492 0 8.416-1.467 11.67-4.785L579.1 165.438v331.975c0 1.213-1.799 2.999-3.291 2.999H400.25v33.179h175.559c9.869 0 18.24-3.573 25.418-10.783 7.18-7.146 10.771-15.505 10.771-25.395V115.16c0-10.145-3.67-18.759-10.771-26.033zM579.1 118.159 335.947 366.422 92.795 118.159v-2.999c0-1.467 1.793-3.573 2.992-3.573h480.021c2.092 0 3.291 1.212 3.291 3.573v2.999z"/><path d="M363.76 488.161c-3.293-5.104-6.725-11.294-19.74-27.245-13.305-16.334-27.098-30.562-51.74-49.64-24.412-18.886-49.691-34.008-87.029-47.534-18.586-6.764-37.983-12.314-58.024-15.888v-57.998c0-7.465-3.567-12.633-10.47-15.249-7.159-2.744-12.851-1.212-17.642 3.573L5.166 392.135c-6.878 6.892-6.897 16.462 0 23.289l113.949 113.381c3.299 3.254 6.878 4.785 11.363 4.785 1.793 0 3.886-.319 6.279-1.213 6.878-3.572 10.47-8.677 10.47-15.249v-56.53h11.063c24.827 0 50.252 2.999 75.672 8.677 39.782 8.933 73.778 25.075 106.17 41.282l.6.318c5.979 3.893 14.879 3.255 20.334-1.786 6.215-5.742 6.764-12.825 2.994-20.354l-.3-.574zm-205.47-60.423c-13.156 0-23.014.383-29.605 1.148-8.065 1.021-14.656 7.784-14.656 16.461v32.03l-74.172-73.566 74.172-74.205v32.604c0 8.678 5.972 15.377 14.056 16.462 59.504 8.166 112.456 31.71 158.81 70.887-42.769-14.675-85.837-21.821-128.605-21.821z"/>
</svg>
